<svg width="60" height="60" viewBox="0 0 60 60" fill="none" xmlns="http://www.w3.org/2000/svg">
<g clip-path="url(#clip0_1_19255)">
<path d="M48.7498 31.4299L29.9998 49.9999L11.2498 31.4299M11.2498 31.4299C10.013 30.2265 9.03888 28.78 8.38865 27.1815C7.73841 25.5831 7.42618 23.8673 7.47162 22.1423C7.51706 20.4172 7.91918 18.7203 8.65267 17.1583C9.38616 15.5963 10.4351 14.2031 11.7335 13.0664C13.0319 11.9297 14.5515 11.0742 16.1968 10.5537C17.8421 10.0331 19.5773 9.85891 21.2932 10.042C23.0091 10.225 24.6685 10.7613 26.167 11.6172C27.6654 12.4731 28.9704 13.63 29.9998 15.015C31.0336 13.64 32.3401 12.4933 33.8375 11.6465C35.3349 10.7997 36.991 10.2711 38.7021 10.0938C40.4132 9.91643 42.1425 10.0942 43.7817 10.6159C45.4209 11.1377 46.9348 11.9921 48.2287 13.1259C49.5225 14.2596 50.5683 15.6482 51.3008 17.2047C52.0333 18.7612 52.4366 20.4522 52.4855 22.1717C52.5345 23.8913 52.2279 25.6024 51.5851 27.1981C50.9423 28.7937 49.977 30.2395 48.7498 31.445" stroke="white" stroke-width="3" stroke-linecap="round" stroke-linejoin="round"/>
</g>
<defs>
<clipPath id="clip0_1_19255">
<rect width="60" height="60" fill="white"/>
</clipPath>
</defs>
</svg>
