<svg width="60" height="60" viewBox="0 0 60 60" fill="none" xmlns="http://www.w3.org/2000/svg">
<g clip-path="url(#clip0_1_19258)">
<path d="M17.5001 24.9999H25.0001V17.4999L16.2501 8.74988C19.0492 7.41306 22.1939 6.97689 25.2511 7.50143C28.3084 8.02598 31.1278 9.48542 33.3212 11.6788C35.5146 13.8722 36.974 16.6916 37.4986 19.7489C38.0231 22.8061 37.5869 25.9508 36.2501 28.7499L51.2501 43.7499C52.2447 44.7444 52.8034 46.0934 52.8034 47.4999C52.8034 48.9064 52.2447 50.2553 51.2501 51.2499C50.2556 52.2444 48.9066 52.8032 47.5001 52.8032C46.0936 52.8032 44.7447 52.2444 43.7501 51.2499L28.7501 36.2499C25.951 37.5867 22.8064 38.0229 19.7491 37.4983C16.6919 36.9738 13.8724 35.5143 11.6791 33.3209C9.48567 31.1276 8.02622 28.3081 7.50168 25.2509C6.97714 22.1936 7.41331 19.049 8.75012 16.2499L17.5001 24.9999Z" stroke="white" stroke-width="3" stroke-linecap="round" stroke-linejoin="round"/>
</g>
<defs>
<clipPath id="clip0_1_19258">
<rect width="60" height="60" fill="white"/>
</clipPath>
</defs>
</svg>
