<svg width="60" height="60" viewBox="0 0 60 60" fill="none" xmlns="http://www.w3.org/2000/svg">
<g clip-path="url(#clip0_1_19265)">
<path d="M17.5 27.5V47.5C17.5 48.163 17.2366 48.7989 16.7678 49.2678C16.2989 49.7366 15.663 50 15 50H10C9.33696 50 8.70107 49.7366 8.23223 49.2678C7.76339 48.7989 7.5 48.163 7.5 47.5V30C7.5 29.337 7.76339 28.7011 8.23223 28.2322C8.70107 27.7634 9.33696 27.5 10 27.5H17.5ZM17.5 27.5C20.1522 27.5 22.6957 26.4464 24.5711 24.5711C26.4464 22.6957 27.5 20.1522 27.5 17.5V15C27.5 13.6739 28.0268 12.4021 28.9645 11.4645C29.9021 10.5268 31.1739 10 32.5 10C33.8261 10 35.0979 10.5268 36.0355 11.4645C36.9732 12.4021 37.5 13.6739 37.5 15V27.5H45C46.3261 27.5 47.5979 28.0268 48.5355 28.9645C49.4732 29.9021 50 31.1739 50 32.5L47.5 45C47.1405 46.5337 46.4584 47.8506 45.5566 48.7524C44.6548 49.6542 43.5821 50.0921 42.5 50H25C23.0109 50 21.1032 49.2098 19.6967 47.8033C18.2902 46.3968 17.5 44.4891 17.5 42.5" stroke="white" stroke-width="3" stroke-linecap="round" stroke-linejoin="round"/>
</g>
<defs>
<clipPath id="clip0_1_19265">
<rect width="60" height="60" fill="white"/>
</clipPath>
</defs>
</svg>
