<svg width="112" height="89" viewBox="0 0 112 89" fill="none" xmlns="http://www.w3.org/2000/svg">
<path d="M73.7419 84.3206C72.555 83.7582 70.2738 82.3318 68.0545 80.8803C65.2468 79.044 61.6629 78.8206 58.7858 80.5463C57.7077 81.193 56.5136 81.927 55.2562 82.728C50.4338 85.7994 47.793 82.9555 48.0226 79.6565C48.1593 77.6925 52.1113 63.4476 53.1043 56.9776C53.7793 52.5796 42.4697 63.8378 39.214 58.6521C37.3324 55.655 46.8375 50.4385 55.2562 41.4337C57.2573 39.2932 58.0118 36.6558 58.1266 34.0394C58.2414 31.4229 60.1933 27.7826 63.5231 28.0102C66.8528 28.2377 68.2306 31.3092 68.3454 34.0394C68.4602 36.7696 69.6286 38.9755 71.79 41.4337C78.9887 49.6211 88.8743 54.2927 86.6948 58.6521C82.1872 62.7308 74.774 55.69 75.0005 58.6521C75.5746 66.1602 76.7271 78.4051 76.7271 81.2491C76.7271 84.0931 76.3827 85.5719 73.7419 84.3206Z" fill="#102032" stroke="url(#paint0_linear_1_18777)" stroke-width="2"/>
<g filter="url(#filter0_f_1_18777)">
<ellipse rx="6.91092" ry="1.99258" transform="matrix(-0.732594 -0.680665 0.680673 -0.732588 76.5825 45.1639)" fill="#85CBE4"/>
<ellipse rx="6.91092" ry="1.99258" transform="matrix(-0.732594 -0.680665 0.680673 -0.732588 76.5825 45.1639)" fill="#85CBE4"/>
<ellipse rx="6.91092" ry="1.99258" transform="matrix(-0.732594 -0.680665 0.680673 -0.732588 76.5825 45.1639)" fill="#85CBE4"/>
</g>
<rect x="-1" y="1" width="19" height="15" transform="matrix(-1 0 0 1 35 60)" fill="#0E1E2F" stroke="#467084" stroke-width="2"/>
<rect x="-1" y="1" width="22" height="17" transform="matrix(-1 0 0 1 22 67)" fill="#0E1E2F" stroke="#467084" stroke-width="2"/>
<rect x="-1" y="1" width="19" height="10" transform="matrix(-1 0 0 1 110 70)" fill="#0E1E2F" stroke="#467084" stroke-width="2"/>
<rect x="-1" y="1" width="65" height="22" transform="matrix(-1 0 0 1 95.002 65)" fill="#0E1E2F" stroke="#85CBE4" stroke-width="2"/>
<rect x="-1" y="1" width="18" height="9" transform="matrix(-1 0 0 1 89 56)" fill="#0E1E2F" stroke="#85CBE4" stroke-width="2"/>
<rect x="-1" y="1" width="9" height="5" transform="matrix(-1 0 0 1 65 60)" fill="#0E1E2F" stroke="#85CBE4" stroke-width="2"/>
<rect x="-1" y="1" width="9" height="5" transform="matrix(-1 0 0 1 49 60)" fill="#0E1E2F" stroke="#85CBE4" stroke-width="2"/>
<path d="M104.164 14L95.7585 1H30.2454L21.8394 14H104.164Z" fill="#0E1E2F" stroke="#85CBE4" stroke-width="2" stroke-linejoin="bevel"/>
<path d="M103.002 14H95.002V17C95.002 19.2091 96.7928 21 99.002 21C101.211 21 103.002 19.2091 103.002 17V14Z" fill="#0E1E2F" stroke="#85CBE4" stroke-width="2"/>
<path d="M95.002 14H87.002V17C87.002 19.2091 88.7928 21 91.002 21C93.2111 21 95.002 19.2091 95.002 17V14Z" fill="#0E1E2F" stroke="#85CBE4" stroke-width="2"/>
<path d="M87.002 14H79.002V17C79.002 19.2091 80.7928 21 83.002 21C85.2111 21 87.002 19.2091 87.002 17V14Z" fill="#0E1E2F" stroke="#85CBE4" stroke-width="2"/>
<path d="M79.002 14H71.002V17C71.002 19.2091 72.7928 21 75.002 21C77.2111 21 79.002 19.2091 79.002 17V14Z" fill="#0E1E2F" stroke="#85CBE4" stroke-width="2"/>
<path d="M71.002 14H63.002V17C63.002 19.2091 64.7928 21 67.002 21C69.2111 21 71.002 19.2091 71.002 17V14Z" fill="#0E1E2F" stroke="#85CBE4" stroke-width="2"/>
<path d="M63.002 14H55.002V17C55.002 19.2091 56.7928 21 59.002 21C61.2111 21 63.002 19.2091 63.002 17V14Z" fill="#0E1E2F" stroke="#85CBE4" stroke-width="2"/>
<path d="M55.002 14H47.002V17C47.002 19.2091 48.7928 21 51.002 21C53.2111 21 55.002 19.2091 55.002 17V14Z" fill="#0E1E2F" stroke="#85CBE4" stroke-width="2"/>
<path d="M47.002 14H39.002V17C39.002 19.2091 40.7928 21 43.002 21C45.2111 21 47.002 19.2091 47.002 17V14Z" fill="#0E1E2F" stroke="#85CBE4" stroke-width="2"/>
<path d="M39.002 14H31.002V17C31.002 19.2091 32.7928 21 35.002 21C37.2111 21 39.002 19.2091 39.002 17V14Z" fill="#0E1E2F" stroke="#85CBE4" stroke-width="2"/>
<g filter="url(#filter1_f_1_18777)">
<ellipse rx="27.9234" ry="1.99258" transform="matrix(-1 0 9.61848e-06 -1 49.0776 13.9925)" fill="#85CBE4"/>
<ellipse rx="27.9234" ry="1.99258" transform="matrix(-1 0 9.61848e-06 -1 49.0776 13.9925)" fill="#85CBE4"/>
<ellipse rx="27.9234" ry="1.99258" transform="matrix(-1 0 9.61848e-06 -1 49.0776 13.9925)" fill="#85CBE4"/>
</g>
<path d="M31.002 14H23.002V17C23.002 19.2091 24.7928 21 27.002 21C29.2111 21 31.002 19.2091 31.002 17V14Z" fill="#0E1E2F" stroke="#85CBE4" stroke-width="2"/>
<line y1="-1" x2="46" y2="-1" transform="matrix(-4.37114e-08 -1 -1 4.37114e-08 95.002 66)" stroke="#85CBE4" stroke-width="2"/>
<line y1="-1" x2="46" y2="-1" transform="matrix(-4.37114e-08 -1 -1 4.37114e-08 30.002 66)" stroke="#85CBE4" stroke-width="2"/>
<defs>
<filter id="filter0_f_1_18777" x="61.3398" y="30.2373" width="30.4854" height="29.8533" filterUnits="userSpaceOnUse" color-interpolation-filters="sRGB">
<feFlood flood-opacity="0" result="BackgroundImageFix"/>
<feBlend mode="normal" in="SourceGraphic" in2="BackgroundImageFix" result="shape"/>
<feGaussianBlur stdDeviation="5" result="effect1_foregroundBlur_1_18777"/>
</filter>
<filter id="filter1_f_1_18777" x="11.1543" y="2" width="75.8467" height="23.9851" filterUnits="userSpaceOnUse" color-interpolation-filters="sRGB">
<feFlood flood-opacity="0" result="BackgroundImageFix"/>
<feBlend mode="normal" in="SourceGraphic" in2="BackgroundImageFix" result="shape"/>
<feGaussianBlur stdDeviation="5" result="effect1_foregroundBlur_1_18777"/>
</filter>
<linearGradient id="paint0_linear_1_18777" x1="75.6131" y1="45.255" x2="46.4045" y2="93.8142" gradientUnits="userSpaceOnUse">
<stop stop-color="#85CBE4"/>
<stop offset="1" stop-color="#0F2131"/>
</linearGradient>
</defs>
</svg>
