<svg width="106" height="90" viewBox="0 0 106 90" fill="none" xmlns="http://www.w3.org/2000/svg">
<path d="M30.5117 66.1204L30.5117 76.9014C30.5117 79.8685 33.621 82.7141 39.1555 84.8121C44.69 86.9102 52.1964 88.0888 60.0233 88.0888C67.8503 88.0888 75.3567 86.9102 80.8912 84.8121C86.4257 82.7141 89.535 79.8685 89.535 76.9014V66.1204" fill="#18253D"/>
<path d="M30.5117 66.1204L30.5117 76.9014C30.5117 79.8685 33.621 82.7141 39.1555 84.8121C44.69 86.9102 52.1964 88.0888 60.0233 88.0888C67.8503 88.0888 75.3567 86.9102 80.8912 84.8121C86.4257 82.7141 89.535 79.8685 89.535 76.9014V66.1204" stroke="#85CBE4" stroke-width="2" stroke-linecap="round" stroke-linejoin="round"/>
<path d="M60.0233 77.6402C76.3222 77.6402 89.535 72.7178 89.535 66.6457C89.535 60.5735 76.3222 55.6511 60.0233 55.6511C43.7245 55.6511 30.5117 60.5735 30.5117 66.6457C30.5117 72.7178 43.7245 77.6402 60.0233 77.6402Z" fill="#18253D" stroke="#85CBE4" stroke-width="2" stroke-linecap="round" stroke-linejoin="round"/>
<path d="M1 44.2598L1 55.0408C1 58.0079 4.10925 60.8535 9.64376 62.9515C15.1783 65.0496 22.6847 66.2282 30.5116 66.2282C38.3386 66.2282 45.845 65.0496 51.3795 62.9515C56.914 60.8535 60.0233 58.0079 60.0233 55.0408V44.2598" fill="#18253D"/>
<path d="M1 44.2598L1 55.0408C1 58.0079 4.10925 60.8535 9.64376 62.9515C15.1783 65.0496 22.6847 66.2282 30.5116 66.2282C38.3386 66.2282 45.845 65.0496 51.3795 62.9515C56.914 60.8535 60.0233 58.0079 60.0233 55.0408V44.2598" stroke="#85CBE4" stroke-width="2" stroke-linecap="round" stroke-linejoin="round"/>
<path d="M30.5116 55.7798C46.8104 55.7798 60.0233 50.8574 60.0233 44.7853C60.0233 38.7132 46.8104 33.7908 30.5116 33.7908C14.2128 33.7908 1 38.7132 1 44.7853C1 50.8574 14.2128 55.7798 30.5116 55.7798Z" fill="#18253D" stroke="#85CBE4" stroke-width="2" stroke-linecap="round" stroke-linejoin="round"/>
<path d="M1 33.3293L1 44.1104C1 47.0775 4.10925 49.923 9.64376 52.0211C15.1783 54.1191 22.6847 55.2978 30.5116 55.2978C38.3386 55.2978 45.845 54.1191 51.3795 52.0211C56.914 49.923 60.0233 47.0775 60.0233 44.1104V33.3293" fill="#18253D"/>
<path d="M1 33.3293L1 44.1104C1 47.0775 4.10925 49.923 9.64376 52.0211C15.1783 54.1191 22.6847 55.2978 30.5116 55.2978C38.3386 55.2978 45.845 54.1191 51.3795 52.0211C56.914 49.923 60.0233 47.0775 60.0233 44.1104V33.3293" stroke="#85CBE4" stroke-width="2" stroke-linecap="round" stroke-linejoin="round"/>
<path d="M30.5116 44.8494C46.8104 44.8494 60.0233 39.927 60.0233 33.8549C60.0233 27.7828 46.8104 22.8604 30.5116 22.8604C14.2128 22.8604 1 27.7828 1 33.8549C1 39.927 14.2128 44.8494 30.5116 44.8494Z" fill="#18253D" stroke="#85CBE4" stroke-width="2" stroke-linecap="round" stroke-linejoin="round"/>
<path d="M30.5117 55.1902L30.5117 65.9712C30.5117 68.9383 33.621 71.7839 39.1555 73.8819C44.69 75.98 52.1964 77.1586 60.0233 77.1586C67.8503 77.1586 75.3567 75.98 80.8912 73.8819C86.4257 71.7839 89.535 68.9383 89.535 65.9712V55.1902" fill="#18253D"/>
<path d="M30.5117 55.1902L30.5117 65.9712C30.5117 68.9383 33.621 71.7839 39.1555 73.8819C44.69 75.98 52.1964 77.1586 60.0233 77.1586C67.8503 77.1586 75.3567 75.98 80.8912 73.8819C86.4257 71.7839 89.535 68.9383 89.535 65.9712V55.1902" stroke="#85CBE4" stroke-width="2" stroke-linecap="round" stroke-linejoin="round"/>
<path d="M60.0233 66.71C76.3222 66.71 89.535 61.7876 89.535 55.7155C89.535 49.6434 76.3222 44.7209 60.0233 44.7209C43.7245 44.7209 30.5117 49.6434 30.5117 55.7155C30.5117 61.7876 43.7245 66.71 60.0233 66.71Z" fill="#18253D" stroke="#85CBE4" stroke-width="2" stroke-linecap="round" stroke-linejoin="round"/>
<path d="M35.9766 39.8877L35.9766 50.6687C35.9766 53.6358 39.0858 56.4814 44.6203 58.5794C50.1548 60.6775 57.6612 61.8562 65.4882 61.8562C73.3152 61.8562 80.8216 60.6775 86.3561 58.5794C91.8906 56.4814 94.9998 53.6358 94.9998 50.6687V39.8877" fill="#18253D"/>
<path d="M35.9766 39.8877L35.9766 50.6687C35.9766 53.6358 39.0858 56.4814 44.6203 58.5794C50.1548 60.6775 57.6612 61.8562 65.4882 61.8562C73.3152 61.8562 80.8216 60.6775 86.3561 58.5794C91.8906 56.4814 94.9998 53.6358 94.9998 50.6687V39.8877" stroke="#85CBE4" stroke-width="2" stroke-linecap="round" stroke-linejoin="round"/>
<path d="M65.4882 51.4078C81.787 51.4078 94.9998 46.4853 94.9998 40.4132C94.9998 34.3411 81.787 29.4187 65.4882 29.4187C49.1894 29.4187 35.9766 34.3411 35.9766 40.4132C35.9766 46.4853 49.1894 51.4078 65.4882 51.4078Z" fill="#18253D" stroke="#85CBE4" stroke-width="2" stroke-linecap="round" stroke-linejoin="round"/>
<path d="M30.5117 26.7712L30.5117 37.5523C30.5117 40.5194 33.621 43.3649 39.1555 45.463C44.69 47.561 52.1964 48.7397 60.0233 48.7397C67.8503 48.7397 75.3567 47.561 80.8912 45.463C86.4257 43.3649 89.535 40.5194 89.535 37.5523V26.7712" fill="#18253D"/>
<path d="M30.5117 26.7712L30.5117 37.5523C30.5117 40.5194 33.621 43.3649 39.1555 45.463C44.69 47.561 52.1964 48.7397 60.0233 48.7397C67.8503 48.7397 75.3567 47.561 80.8912 45.463C86.4257 43.3649 89.535 40.5194 89.535 37.5523V26.7712" stroke="#85CBE4" stroke-width="2" stroke-linecap="round" stroke-linejoin="round"/>
<path d="M60.0233 38.2913C76.3222 38.2913 89.535 33.3689 89.535 27.2968C89.535 21.2247 76.3222 16.3022 60.0233 16.3022C43.7245 16.3022 30.5117 21.2247 30.5117 27.2968C30.5117 33.3689 43.7245 38.2913 60.0233 38.2913Z" fill="#18253D" stroke="#85CBE4" stroke-width="2" stroke-linecap="round" stroke-linejoin="round"/>
<path d="M23.9531 11.4692L23.9531 22.2503C23.9531 25.2174 27.0624 28.0629 32.5969 30.161C38.1314 32.259 45.6378 33.4377 53.4648 33.4377C61.2917 33.4377 68.7981 32.259 74.3326 30.161C79.8671 28.0629 82.9764 25.2174 82.9764 22.2503V11.4692" fill="#18253D"/>
<path d="M23.9531 11.4692L23.9531 22.2503C23.9531 25.2174 27.0624 28.0629 32.5969 30.161C38.1314 32.259 45.6378 33.4377 53.4648 33.4377C61.2917 33.4377 68.7981 32.259 74.3326 30.161C79.8671 28.0629 82.9764 25.2174 82.9764 22.2503V11.4692" stroke="#85CBE4" stroke-width="2" stroke-linecap="round" stroke-linejoin="round"/>
<path d="M53.4648 22.9891C69.7636 22.9891 82.9764 18.0666 82.9764 11.9945C82.9764 5.92242 69.7636 1 53.4648 1C37.1659 1 23.9531 5.92242 23.9531 11.9945C23.9531 18.0666 37.1659 22.9891 53.4648 22.9891Z" fill="#18253D" stroke="#85CBE4" stroke-width="2" stroke-linecap="round" stroke-linejoin="round"/>
<g filter="url(#filter0_f_1_18820)">
<ellipse rx="10.0102" ry="1.99258" transform="matrix(0.965926 -0.258819 -0.258828 -0.965923 70.1847 21.9273)" fill="#85CBE4"/>
<ellipse rx="10.0102" ry="1.99258" transform="matrix(0.965926 -0.258819 -0.258828 -0.965923 70.1847 21.9273)" fill="#85CBE4"/>
<ellipse rx="10.0102" ry="1.99258" transform="matrix(0.965926 -0.258819 -0.258828 -0.965923 70.1847 21.9273)" fill="#85CBE4"/>
</g>
<g filter="url(#filter1_f_1_18820)">
<ellipse rx="12.227" ry="3.33603" transform="matrix(0.965926 -0.258819 -0.258828 -0.965923 83.6735 47.7989)" fill="#85CBE4"/>
<ellipse rx="12.227" ry="3.33603" transform="matrix(0.965926 -0.258819 -0.258828 -0.965923 83.6735 47.7989)" fill="#85CBE4"/>
<ellipse rx="12.227" ry="3.33603" transform="matrix(0.965926 -0.258819 -0.258828 -0.965923 83.6735 47.7989)" fill="#85CBE4"/>
</g>
<g filter="url(#filter2_f_1_18820)">
<ellipse rx="9.2188" ry="2.29982" transform="matrix(0.965926 -0.258819 -0.258828 -0.965923 74.4998 75.5764)" fill="#85CBE4"/>
<ellipse rx="9.2188" ry="2.29982" transform="matrix(0.965926 -0.258819 -0.258828 -0.965923 74.4998 75.5764)" fill="#85CBE4"/>
<ellipse rx="9.2188" ry="2.29982" transform="matrix(0.965926 -0.258819 -0.258828 -0.965923 74.4998 75.5764)" fill="#85CBE4"/>
</g>
<defs>
<filter id="filter0_f_1_18820" x="50.5015" y="8.69971" width="39.3662" height="26.4553" filterUnits="userSpaceOnUse" color-interpolation-filters="sRGB">
<feFlood flood-opacity="0" result="BackgroundImageFix"/>
<feBlend mode="normal" in="SourceGraphic" in2="BackgroundImageFix" result="shape"/>
<feGaussianBlur stdDeviation="5" result="effect1_foregroundBlur_1_18820"/>
</filter>
<filter id="filter1_f_1_18820" x="61.8311" y="33.2825" width="43.6851" height="29.0327" filterUnits="userSpaceOnUse" color-interpolation-filters="sRGB">
<feFlood flood-opacity="0" result="BackgroundImageFix"/>
<feBlend mode="normal" in="SourceGraphic" in2="BackgroundImageFix" result="shape"/>
<feGaussianBlur stdDeviation="5" result="effect1_foregroundBlur_1_18820"/>
</filter>
<filter id="filter2_f_1_18820" x="55.5752" y="62.3164" width="37.8496" height="26.52" filterUnits="userSpaceOnUse" color-interpolation-filters="sRGB">
<feFlood flood-opacity="0" result="BackgroundImageFix"/>
<feBlend mode="normal" in="SourceGraphic" in2="BackgroundImageFix" result="shape"/>
<feGaussianBlur stdDeviation="5" result="effect1_foregroundBlur_1_18820"/>
</filter>
</defs>
</svg>
