<svg width="29" height="21" viewBox="0 0 29 21" fill="none" xmlns="http://www.w3.org/2000/svg">
<path fill-rule="evenodd" clip-rule="evenodd" d="M21.4029 20.6041C21.4029 20.6041 20.509 19.5494 19.7642 18.6173C23.0168 17.7097 24.2582 15.6984 24.2582 15.6984C23.2402 16.3607 22.2719 16.8267 21.4029 17.1456C20.1614 17.6607 18.9697 18.0041 17.8027 18.2003C15.4192 18.6418 13.2342 18.5192 11.3721 18.1758C9.95682 17.9059 8.74021 17.5135 7.72223 17.121C7.15117 16.9003 6.53045 16.6305 5.90973 16.2871C5.87249 16.2625 5.83525 16.2441 5.79801 16.2258C5.76076 16.2074 5.72352 16.189 5.68628 16.1644C5.63662 16.1399 5.61179 16.1154 5.58696 16.0908C5.14004 15.8456 4.89176 15.6739 4.89176 15.6739C4.89176 15.6739 6.08354 17.6361 9.23679 18.5682C8.49193 19.5003 7.57326 20.6041 7.57326 20.6041C2.0861 20.4324 0.000488281 16.8758 0.000488281 16.8758C0.000488281 8.9776 3.57583 2.57569 3.57583 2.57569C7.15117 -0.0733814 10.5527 0.000203837 10.5527 0.000203837L10.801 0.294545C6.33182 1.57002 4.27104 3.50777 4.27104 3.50777C4.27104 3.50777 4.81727 3.21343 5.73593 2.79644C8.39261 1.64361 10.5031 1.32474 11.3721 1.25115L11.4277 1.24186C11.553 1.22079 11.6641 1.2021 11.7942 1.2021C13.3087 1.00587 15.0219 0.956812 16.8096 1.15304C19.1683 1.42285 21.7008 2.10965 24.283 3.50777C24.283 3.50777 22.3215 1.66814 18.1007 0.392659L18.4483 0.000203837C18.4483 0.000203837 21.8498 -0.0733814 25.4251 2.57569C25.4251 2.57569 29.0005 8.9776 29.0005 16.8758C29.0005 16.8758 26.89 20.4324 21.4029 20.6041ZM10.556 9.59473C9.15195 9.59473 8.04346 10.8575 8.04346 12.398C8.04346 13.9385 9.17658 15.2012 10.556 15.2012C11.9601 15.2012 13.0686 13.9385 13.0686 12.398C13.0932 10.8575 11.9601 9.59473 10.556 9.59473ZM17.0356 12.398C17.0356 10.8575 18.1441 9.59473 19.5482 9.59473C20.9523 9.59473 22.0608 10.8575 22.0608 12.398C22.0608 13.9385 20.9523 15.2012 19.5482 15.2012C18.1688 15.2012 17.0356 13.9385 17.0356 12.398Z" fill="white"/>
</svg>
