<svg width="32" height="32" viewBox="0 0 32 32" fill="none" xmlns="http://www.w3.org/2000/svg">
<g clip-path="url(#clip0_113_28704)">
<path d="M25.3333 9.33325H6.66667C5.19391 9.33325 4 10.5272 4 11.9999V23.9999C4 25.4727 5.19391 26.6666 6.66667 26.6666H25.3333C26.8061 26.6666 28 25.4727 28 23.9999V11.9999C28 10.5272 26.8061 9.33325 25.3333 9.33325Z" stroke="white" stroke-width="2" stroke-linecap="round" stroke-linejoin="round"/>
<path d="M10.6665 9.33333V6.66667C10.6665 5.95942 10.9475 5.28115 11.4476 4.78105C11.9477 4.28095 12.6259 4 13.3332 4H18.6665C19.3737 4 20.052 4.28095 20.5521 4.78105C21.0522 5.28115 21.3332 5.95942 21.3332 6.66667V9.33333" stroke="white" stroke-width="2" stroke-linecap="round" stroke-linejoin="round"/>
<path d="M16 16V16.0133" stroke="white" stroke-width="2" stroke-linecap="round" stroke-linejoin="round"/>
<path d="M4 17.3333C7.72211 19.2088 11.832 20.1858 16 20.1858C20.168 20.1858 24.2779 19.2088 28 17.3333" stroke="white" stroke-width="2" stroke-linecap="round" stroke-linejoin="round"/>
</g>
<defs>
<clipPath id="clip0_113_28704">
<rect width="32" height="32" fill="white"/>
</clipPath>
</defs>
</svg>
