<svg width="32" height="32" viewBox="0 0 32 32" fill="none" xmlns="http://www.w3.org/2000/svg">
<g clip-path="url(#clip0_113_28719)">
<path d="M16 8C17.6569 8 19 6.65685 19 5C19 3.34315 17.6569 2 16 2C14.3431 2 13 3.34315 13 5C13 6.65685 14.3431 8 16 8Z" stroke="white" stroke-width="2" stroke-linecap="round" stroke-linejoin="round"/>
<path d="M27 12C28.6569 12 30 10.6569 30 9C30 7.34315 28.6569 6 27 6C25.3431 6 24 7.34315 24 9C24 10.6569 25.3431 12 27 12Z" stroke="white" stroke-width="2" stroke-linecap="round" stroke-linejoin="round"/>
<path d="M5 12C6.65685 12 8 10.6569 8 9C8 7.34315 6.65685 6 5 6C3.34315 6 2 7.34315 2 9C2 10.6569 3.34315 12 5 12Z" stroke="white" stroke-width="2" stroke-linecap="round" stroke-linejoin="round"/>
<path d="M13 26V19.1818V17.8182V12.3636C13 12.002 13.158 11.6551 13.4393 11.3994C13.7206 11.1437 14.1022 11 14.5 11H17.5C17.8978 11 18.2794 11.1437 18.5607 11.3994C18.842 11.6551 19 12.002 19 12.3636V17.8182V19.1818V26" stroke="white" stroke-width="2" stroke-linecap="round" stroke-linejoin="round"/>
<path d="M24 30V23.1818V21.8182V16.3636C24 16.002 24.158 15.6551 24.4393 15.3994C24.7206 15.1437 25.1022 15 25.5 15H28.5C28.8978 15 29.2794 15.1437 29.5607 15.3994C29.842 15.6551 30 16.002 30 16.3636V21.8182V23.1818V30" stroke="white" stroke-width="2" stroke-linecap="round" stroke-linejoin="round"/>
<path d="M2 30V23.1818L2 21.8182V16.3636C2 16.002 2.15804 15.6551 2.43934 15.3994C2.72064 15.1437 3.10218 15 3.5 15H6.5C6.89782 15 7.27936 15.1437 7.56066 15.3994C7.84196 15.6551 8 16.002 8 16.3636V21.8182V23.1818V30" stroke="white" stroke-width="2" stroke-linecap="round" stroke-linejoin="round"/>
</g>
<defs>
<clipPath id="clip0_113_28719">
<rect width="32" height="32" fill="white"/>
</clipPath>
</defs>
</svg>
