<svg width="32" height="32" viewBox="0 0 32 32" fill="none" xmlns="http://www.w3.org/2000/svg">
<g clip-path="url(#clip0_113_28716)">
<path d="M10.6667 16H5.33333C4.59695 16 4 16.597 4 17.3333V25.3333C4 26.0697 4.59695 26.6667 5.33333 26.6667H10.6667C11.403 26.6667 12 26.0697 12 25.3333V17.3333C12 16.597 11.403 16 10.6667 16Z" stroke="white" stroke-width="2" stroke-linecap="round" stroke-linejoin="round"/>
<path d="M18.6667 10.6667H13.3333C12.597 10.6667 12 11.2637 12 12.0001V25.3334C12 26.0698 12.597 26.6667 13.3333 26.6667H18.6667C19.403 26.6667 20 26.0698 20 25.3334V12.0001C20 11.2637 19.403 10.6667 18.6667 10.6667Z" stroke="white" stroke-width="2" stroke-linecap="round" stroke-linejoin="round"/>
<path d="M26.6667 5.33325H21.3333C20.597 5.33325 20 5.93021 20 6.66659V25.3333C20 26.0696 20.597 26.6666 21.3333 26.6666H26.6667C27.403 26.6666 28 26.0696 28 25.3333V6.66659C28 5.93021 27.403 5.33325 26.6667 5.33325Z" stroke="white" stroke-width="2" stroke-linecap="round" stroke-linejoin="round"/>
<path d="M5.3335 26.6667H24.0002" stroke="white" stroke-width="2" stroke-linecap="round" stroke-linejoin="round"/>
</g>
<defs>
<clipPath id="clip0_113_28716">
<rect width="32" height="32" fill="white"/>
</clipPath>
</defs>
</svg>
