<svg width="25" height="21" viewBox="0 0 25 21" fill="none" xmlns="http://www.w3.org/2000/svg">
<path fill-rule="evenodd" clip-rule="evenodd" d="M12.1394 5.58633L12.1936 6.49464L11.2904 6.38342C8.00279 5.95707 5.13063 4.51119 2.69201 2.08285L1.49979 0.87795L1.1927 1.76772C0.542405 3.75117 0.957874 5.84585 2.31266 7.25465C3.03522 8.0332 2.87265 8.14442 1.62624 7.681C1.1927 7.53271 0.813363 7.42148 0.777235 7.47709C0.650788 7.60685 1.08432 9.29371 1.42753 9.96104C1.8972 10.8879 2.85458 11.7962 3.90229 12.3338L4.78742 12.7601L3.73971 12.7787C2.72813 12.7787 2.69201 12.7972 2.80039 13.1865C3.16167 14.3914 4.58871 15.6704 6.17834 16.2265L7.2983 16.6158L6.32285 17.209C4.87774 18.0617 3.17973 18.5436 1.48173 18.5807C0.668852 18.5992 0.000488281 18.6734 0.000488281 18.729C0.000488281 18.9144 2.20428 19.9524 3.48682 20.3603C7.33442 21.5652 11.9046 21.0461 15.3367 18.9885C17.7753 17.5241 20.214 14.6138 21.352 11.7962C21.9662 10.2947 22.5803 7.55124 22.5803 6.23512C22.5803 5.38242 22.6345 5.2712 23.6461 4.25167C24.2422 3.65849 24.8022 3.0097 24.9106 2.82433C25.0912 2.47213 25.0732 2.47213 24.1519 2.78725C22.6165 3.34336 22.3997 3.26921 23.1584 2.43505C23.7184 1.84187 24.3867 0.766729 24.3867 0.451601C24.3867 0.39599 24.1158 0.488675 23.8087 0.655507C23.4835 0.840877 22.761 1.11893 22.2191 1.28576L21.2436 1.60089L20.3585 0.989172C19.8708 0.655507 19.1843 0.284769 18.8231 0.173547C17.9018 -0.0859696 16.4928 -0.0488958 15.6619 0.247695C13.4039 1.08186 11.9768 3.23214 12.1394 5.58633Z" fill="white"/>
</svg>
