<svg width="456" height="668" viewBox="0 0 456 668" fill="none" xmlns="http://www.w3.org/2000/svg">
<path d="M153.215 54.6431C153.215 80.1967 144.697 88.7146 119.144 88.7146C144.697 88.7146 153.215 97.2325 153.215 122.786C153.215 97.2325 161.733 88.7146 187.287 88.7146C161.733 88.7146 153.215 80.1967 153.215 54.6431Z" fill="#1B2539"/>
<path d="M37.8219 478.287C37.8219 510.35 27.1344 521.037 -4.92822 521.037C27.1344 521.037 37.8219 531.725 37.8219 563.787C37.8219 531.725 48.5094 521.037 80.572 521.037C48.5094 521.037 37.8219 510.35 37.8219 478.287Z" fill="#1B2539"/>
<path d="M113.679 630.645C113.679 642.457 109.742 646.395 97.9292 646.395C109.742 646.395 113.679 650.332 113.679 662.145C113.679 650.332 117.617 646.395 129.429 646.395C117.617 646.395 113.679 642.457 113.679 630.645Z" fill="#1B2539"/>
<path d="M66.4292 2.2734e-07C66.4292 13.5 61.9292 18 48.4292 18C61.9292 18 66.4292 22.5001 66.4292 36.0001C66.4292 22.5001 70.9293 18 84.4293 18C70.9293 18 66.4292 13.5 66.4292 2.2734e-07Z" fill="#1B2539"/>
<path fill-rule="evenodd" clip-rule="evenodd" d="M32.1001 304.908C30.0422 310.465 28.4665 316.175 27.3755 321.972C41.4234 319.675 61.5918 315.919 72.502 312.304C81.7601 309.237 90.9043 305.5 98.1686 302.531L98.1688 302.53L98.1689 302.53C104.345 300.006 109.162 298.037 111.535 297.508C116.7 296.355 135.989 287.548 143.712 276.195C151.436 264.842 153.402 259.287 155.37 251.179C156.086 248.231 157.485 244.698 159.011 241.359C157.175 240.839 155.329 240.369 153.474 239.949C143.258 260.686 123.767 272.096 101.677 285.027L101.673 285.029C100.505 285.713 99.3288 286.402 98.1466 287.096C80.7341 297.321 51.3078 302.714 32.1001 304.908ZM142.815 238.089C140.092 244.312 135.616 250.19 125.626 256.986C123.093 258.71 120.601 260.45 118.13 262.175C105.225 271.186 92.9078 279.787 78.4772 283.396C76.7853 283.819 75.0909 284.247 73.3999 284.673L73.3947 284.675L73.3892 284.676L73.3891 284.676C60.5002 287.929 47.8088 291.131 37.9366 291.949C43.3817 281.788 50.6112 272.389 59.6075 264.222C82.9625 243.02 113.434 234.47 142.815 238.089ZM166.804 243.887C165.716 245.274 164.731 246.765 163.935 248.341C159.417 257.288 157.767 273.123 161.815 277.53C165.863 281.937 177.442 271.716 181.307 261.784C183.048 257.312 183.926 254.044 183.936 251.931C182.451 251.068 180.949 250.242 179.433 249.455C178.777 249.629 178.127 249.771 177.488 249.91C173.774 250.72 170.403 251.454 168.109 258.051C165.29 266.156 167.577 267.477 169.931 265.917C172.285 264.358 177.126 259.734 172.55 261.347C167.973 262.961 172.425 255.192 173.995 254.153C175.564 253.113 182.103 250.2 178.436 257.449C177.165 259.961 176.405 262.067 175.749 263.882C174.514 267.303 173.653 269.689 170.448 271.812C165.543 275.061 162.47 276.813 164.18 265.757C165.776 255.436 166.57 250.588 170.767 245.429C169.454 244.888 168.133 244.374 166.804 243.887ZM190.158 255.834C188.866 258.113 187.282 260.687 185.358 263.638C173.314 282.105 155.451 303.293 140.999 311.732C129.437 318.483 125.939 317.549 125.635 316.238C116.502 320.491 96.7859 329.449 90.9804 331.253C85.1748 333.057 81.7192 333.323 80.7171 333.231C71.4341 335.41 51.1163 339.852 44.1096 340.183C40.4345 340.357 38.8891 339.769 37.4638 339.227C35.4923 338.477 33.7507 337.815 26.921 339.376C26.444 339.485 25.9902 339.558 25.5584 339.598C25.4225 346.452 25.9426 353.335 27.1225 360.145C38.9154 358.437 60.915 354.899 71.8759 351.845C86.6509 347.729 127.78 328.426 148.844 309.087C169.908 289.748 180.702 279.196 192.09 263.148C193.073 261.763 193.999 260.448 194.871 259.203C193.324 258.034 191.752 256.911 190.158 255.834ZM198.49 262.06C197.41 263.76 196.196 265.508 194.831 267.286C193.897 268.504 192.933 269.77 191.939 271.075C181.18 285.207 166.946 303.902 148.445 316.156C144.534 318.746 140.981 321.142 137.657 323.384C123.802 332.726 113.918 339.391 98.6783 346.284C79.7814 354.831 41.2118 363.083 33.0403 364.81C30.9037 365.261 29.2679 365.173 28.0301 364.779C28.9368 368.927 30.0914 373.038 31.4948 377.09C31.6375 376.824 31.7793 376.569 31.9182 376.327C40.2407 376.107 62.1951 373.454 83.4321 364.605C109.978 353.543 136.984 340.191 167.338 311.864C187.969 292.61 198.512 277.419 203.972 266.892C202.187 265.211 200.359 263.6 198.49 262.06ZM211.028 274.174C200.963 291.295 183.597 311.963 156.009 334.395C125.921 358.86 85.5798 374.24 71.5887 378.687C62.4832 381.581 51.8007 383.358 43.3782 384.759C40.2481 385.28 37.4302 385.749 35.1213 386.204C38.0384 392.667 41.6242 398.922 45.8826 404.866C45.9027 404.825 45.9228 404.785 45.9431 404.746C54.3967 404.156 77.8299 399.786 103.933 387.033C134.752 371.976 149.241 360.4 170.209 343.648L170.214 343.644C171.444 342.661 172.697 341.66 173.977 340.639C197.066 322.227 208.323 306.833 216.768 291.882C217.892 289.894 218.933 287.774 219.896 285.62C217.229 281.667 214.274 277.842 211.028 274.174ZM223.006 290.501C221.559 292.968 219.889 295.58 218.004 298.436C216.16 301.229 214.802 303.519 213.555 305.623C209.179 313.003 206.165 318.088 188.296 334.557C165.335 355.719 148.395 368.925 134.661 377.171C120.928 385.416 102.424 393.704 89.5425 399.4C76.8644 405.007 56.9704 408.802 49.802 410.011C51.1276 411.649 52.5079 413.26 53.9429 414.841C55.7077 416.785 57.5258 418.651 59.3928 420.439C65.1064 416.394 73.2786 411.608 80.9704 409.898C91.7961 407.491 101.387 406.487 104.83 406.286C113.22 403.753 131.125 398.169 135.624 396.096C137.117 395.408 139.984 394.391 143.511 393.138L143.511 393.138C153.267 389.674 168.072 384.417 172.829 379.392C175.605 376.46 180.145 373.609 184.686 370.757L184.686 370.757C190.74 366.956 196.794 363.154 198.665 359.16C200.026 356.255 202.62 352.631 205.468 348.651C209.471 343.059 213.977 336.763 216.274 330.769C217.209 328.328 218.193 325.501 219.228 322.527C221.917 314.806 224.948 306.097 228.365 300.593C226.769 297.163 224.982 293.794 223.006 290.501ZM237.597 332.479C233.144 340.334 227.814 348.587 221.608 356.722C201.06 383.658 182.223 397.836 168.751 406.476C157.973 413.388 140.327 421.806 132.851 425.151C132.063 428.224 126.031 434.885 108.199 436.943C102.65 437.583 99.1065 437.897 96.7442 438.106L96.7435 438.106L96.7433 438.106C93.6152 438.383 92.5587 438.477 91.6598 438.903C91.2014 439.12 90.784 439.424 90.1536 439.882L90.1534 439.883C89.8435 440.108 89.4821 440.371 89.0391 440.68C95.4207 443.631 102.028 445.933 108.758 447.579C122.441 442.767 145.223 434.45 153.238 430.36C164.42 424.655 199.409 401.196 213.604 388.108C220.278 381.955 229.753 368.248 238.119 354.974C238.731 347.506 238.559 339.963 237.597 332.479ZM235.281 372.163C235.164 372.298 235.045 372.433 234.926 372.568C216.213 393.752 198.811 410.948 173.439 424.635C155.758 434.173 133.949 444.422 121.792 449.93C150.989 453.362 181.209 444.785 204.407 423.726C220.119 409.462 230.441 391.441 235.281 372.163ZM74.97 432.856C75.1259 432.658 75.2888 432.459 75.4589 432.261C75.8401 431.817 76.2074 431.387 76.5626 430.972C83.0362 423.399 85.5252 420.487 96.06 418.616C107.173 416.642 113.579 416.085 111.418 420.068C109.257 424.051 96.5731 428.766 95.0708 427.777C93.5685 426.787 97.101 423.597 100.697 422.633C104.292 421.669 110.571 417.51 100.307 419.488C90.0443 421.466 89.1905 425.718 91.0828 429.001C92.975 432.284 99.9021 433.366 105.396 429.727C110.889 426.088 117.039 420.031 113.906 415.301C110.773 410.571 101.556 412.424 92.6646 415.194C83.7732 417.965 75.6624 424.471 71.2787 429.359C71.0979 429.561 70.901 429.738 70.6895 429.892C72.0975 430.917 73.5249 431.905 74.97 432.856Z" fill="#1B2539"/>
<path fill-rule="evenodd" clip-rule="evenodd" d="M44.9003 124.924L44.788 120.819C45.9904 120.023 49.6405 118.144 54.6213 117C56.657 118.379 58.3151 120.452 59.3103 121.964C59.4363 121.963 59.5625 121.962 59.6887 121.962C68.1174 121.962 75.9095 124.687 82.232 129.305L84.293 129.358C85.1031 129.38 85.8892 129.082 86.4828 128.531C87.367 128.889 89.6618 131.058 92.2368 133.492L92.237 133.492L92.237 133.492C93.5971 134.778 95.0353 136.138 96.3851 137.343C95.0626 138.43 94.7188 140.615 94.4484 142.334C94.3687 142.84 94.2954 143.306 94.2052 143.692C96.6065 148.696 97.9516 154.303 97.9516 160.225C97.9516 169.724 94.49 178.415 88.7593 185.105L88.4172 187.269C88.2906 188.069 88.4827 188.887 88.9523 189.548C88.482 190.378 86.0319 192.37 83.2828 194.606C81.8308 195.787 80.2953 197.035 78.924 198.217C78.0191 196.764 75.8972 196.138 74.2286 195.646L74.2041 195.639C70.8786 197.003 67.3184 197.913 63.6009 198.29C63.42 198.309 63.2388 198.326 63.0571 198.342C61.9466 198.438 60.8224 198.488 59.6867 198.488C51.8477 198.488 44.5593 196.131 38.4917 192.086L37.4701 192.382C36.9691 192.526 36.5218 192.815 36.1839 193.213C35.7069 193.177 34.4876 192.433 33.1195 191.6C32.3969 191.159 31.6328 190.694 30.9145 190.293C31.6523 189.498 31.8726 188.295 32.046 187.349C32.0822 187.151 32.1164 186.964 32.1529 186.795C27.1351 181.596 23.576 174.98 22.135 167.606L21.2201 166.861C20.8217 166.537 20.3121 166.381 19.8005 166.428C19.4953 165.906 19.1836 163.929 18.8339 161.71C18.6491 160.538 18.4538 159.298 18.2432 158.17C19.3277 158.137 20.3467 157.174 21.1479 156.416C21.3308 156.243 21.5023 156.08 21.6607 155.942C23.2228 141.917 32.3665 130.18 44.9003 124.924ZM43.1963 155.69C40.6029 160.319 35.8202 162.569 32.5139 160.717C30.9354 159.832 29.9788 158.173 29.6923 156.176C30.1078 153.069 30.9947 150.111 32.2787 147.377C34.9768 143.859 39.0081 142.331 41.9056 143.954C45.2119 145.807 45.7898 151.061 43.1963 155.69ZM89.1187 167.297C88.5471 169.685 87.6925 171.963 86.5923 174.093C84.1917 175.117 81.1395 173.946 79.5126 171.267C77.7535 168.371 78.3267 164.808 80.793 163.311C83.2592 161.813 86.6845 162.946 88.4436 165.843C88.7297 166.314 88.9541 166.803 89.1187 167.297ZM65.7289 152.654C58.913 149.654 55.1243 143.276 57.2667 138.407C59.4091 133.539 66.6712 132.024 73.4872 135.023C80.3031 138.022 84.0917 144.401 81.9493 149.269C79.8069 154.138 72.5448 155.653 65.7289 152.654ZM41.0354 180.009C41.0354 182.757 42.7246 185.224 45.4041 186.912C46.438 187.467 47.5079 187.963 48.6093 188.396C50.2441 188.928 52.0612 189.224 53.9755 189.224C61.1221 189.224 66.9156 185.098 66.9156 180.009C66.9156 174.919 61.1221 170.794 53.9755 170.794C46.8288 170.794 41.0354 174.919 41.0354 180.009Z" fill="#1B2539"/>
</svg>
