<svg width="211" height="290" viewBox="0 0 211 290" fill="none" xmlns="http://www.w3.org/2000/svg">
<g clip-path="url(#clip0_116_115)">
<path fill-rule="evenodd" clip-rule="evenodd" d="M314.079 137.009C236.902 140.997 174.193 198.864 139.129 251.845C139.711 252.518 140.303 253.186 140.905 253.849C147.825 261.472 155.566 267.896 163.859 273.103C207.249 211.174 277.477 188.393 325.411 182.785C325.056 167.157 321.294 151.494 314.079 137.009ZM322.864 208.556C262.479 224.66 215.395 259.695 189.643 284.912C224.259 295.549 263.047 288.445 291.369 262.734C307.789 247.827 318.323 228.816 322.864 208.556ZM123.523 228.274C173.563 138.928 231.346 118.867 293.682 108.581C285.695 100.517 276.743 93.9436 267.196 88.8835C172.763 97.4387 128.997 153.841 113.549 195.74C115.115 206.882 118.434 217.875 123.523 228.274ZM112.589 185.129C134.429 95.1311 212.703 82.0939 256.63 83.9912C220.041 69.3839 177.189 75.4327 146.569 103.23C122.793 124.814 111.358 155.003 112.589 185.129Z" fill="#1B2539"/>
<path d="M83.712 -0.10498C83.712 31.9576 73.0245 42.6451 40.9619 42.6451C73.0245 42.6451 83.712 53.3327 83.712 85.3952C83.712 53.3327 94.3996 42.6451 126.462 42.6451C94.3996 42.6451 83.712 31.9576 83.712 -0.10498Z" fill="#1B2539"/>
<circle cx="42.9619" cy="160.895" r="41" fill="#1B2539"/>
<circle cx="95.4619" cy="247.395" r="18.5" fill="#1B2539"/>
<circle cx="29.9619" cy="235.895" r="7" fill="#1B2539"/>
</g>
<defs>
<clipPath id="clip0_116_115">
<rect width="211" height="290" fill="white"/>
</clipPath>
</defs>
</svg>
