<svg width="281" height="323" viewBox="0 0 281 323" fill="none" xmlns="http://www.w3.org/2000/svg">
<g clip-path="url(#clip0_133_122)">
<path fill-rule="evenodd" clip-rule="evenodd" d="M-68.8793 67.6935C5.70219 71.5471 66.3022 127.469 100.187 178.668C99.6246 179.318 99.0524 179.964 98.471 180.604C91.7832 187.971 84.3028 194.178 76.2885 199.21C34.3578 139.364 -33.5081 117.349 -79.8304 111.93C-79.4873 96.827 -75.8516 81.6916 -68.8793 67.6935ZM-77.3692 136.834C-19.0145 152.396 26.4855 186.253 51.3716 210.622C17.9196 220.902 -19.5632 214.036 -46.9327 189.19C-62.8009 174.785 -72.981 156.413 -77.3692 136.834ZM115.268 155.889C66.9106 69.5477 11.0713 50.1616 -49.1688 40.2211C-41.4498 32.4281 -32.7991 26.0762 -23.5736 21.1863C67.684 29.4537 109.978 83.9587 124.907 124.449C123.394 135.217 120.186 145.84 115.268 155.889ZM125.835 114.195C104.729 27.2237 29.0875 14.625 -13.3628 16.4585C21.9955 2.34242 63.4068 8.18777 92.9969 35.05C115.973 55.9081 127.024 85.082 125.835 114.195Z" fill="#1B2539"/>
<path d="M230 -2.98229e-05C230 42 243.75 56 285 56C243.75 56 230 70 230 112C230 70 216.25 56 175 56C216.25 56 230 42 230 -2.98229e-05Z" fill="#1B2539"/>
<path d="M68.5 261C68.5 284.25 76.125 292 99 292C76.125 292 68.5 299.75 68.5 323C68.5 299.75 60.875 292 38 292C60.875 292 68.5 284.25 68.5 261Z" fill="#1B2539"/>
</g>
<defs>
<clipPath id="clip0_133_122">
<rect width="281" height="323" fill="white"/>
</clipPath>
</defs>
</svg>
