<svg width="870" height="497" viewBox="0 0 870 497" fill="none" xmlns="http://www.w3.org/2000/svg">
<g clip-path="url(#clip0_133_121)">
<path fill-rule="evenodd" clip-rule="evenodd" d="M516.927 62.6908C511.664 81.941 502.438 104.99 489.597 111.154C472.116 119.545 456.965 114.65 451.575 111.154C468.659 110.506 498.646 100.522 497.032 67.1636C478.26 72.8744 460.482 82.6906 445.058 96.6925C430.149 110.227 418.92 126.329 411.419 143.767C435.685 145.97 466.955 144.051 489.597 128.635C522.462 106.259 534.466 86.3881 536.36 79.2498C530.533 105.035 505.418 157.742 451.575 162.287C431.776 163.958 416.256 164.657 404.327 164.777C399.748 183.079 398.916 202.238 401.878 221.021C455.618 223.955 539.287 209.142 596.234 133.88C573.4 207.415 458.367 250.447 412.915 257.814C417.741 268.441 423.941 278.637 431.523 288.139C450.701 285.584 471.631 278.659 485.664 263.243C510.487 235.972 541.459 231.776 553.842 233.088C522.811 238.769 513.634 249.695 487.849 286.406C478.222 300.113 466.063 307.499 454.454 311.123C467.992 321.96 483.058 330.02 498.84 335.254C503.14 326.689 505.214 316.937 507.214 307.528C512.187 284.144 516.709 262.875 553.842 267.177C611.181 273.82 644.163 247.219 653.486 233.088C636.004 263.244 607.16 280.287 563.02 286.406C535.752 290.186 526.708 318.358 524.942 341.26C564.08 346.452 604.816 335.244 635.955 306.976C639.556 303.707 642.943 300.288 646.114 296.736C623.927 307.318 596.072 314.096 571.761 310.006C640.652 294.826 670.263 251.781 679.773 222.382C682.374 201.67 680.362 180.357 673.673 160.113C668.34 164.859 664.398 172.21 663.538 183.265C660.479 222.599 609.783 252.317 577.442 249.695C605.849 245.325 648.679 212.984 653.486 175.836C655.84 157.649 659.186 143.553 662.064 134.051C656.915 125.034 650.703 116.426 643.423 108.406C642.03 106.871 640.612 105.374 639.17 103.913C631.952 118.635 620.923 136.015 609.783 139.124C617.365 127.628 624.534 109.33 629.404 94.8841C621.685 88.3752 613.433 82.7983 604.806 78.1627C592.451 125.459 532.998 183.978 445.456 192.006C535.857 167.078 568.232 105.753 575.656 66.4243C556.484 61.0671 536.439 59.795 516.927 62.6908ZM622.894 153.547C613.716 158.063 592.651 176.273 581.812 212.984C568.264 258.873 685.39 149.176 622.894 153.547Z" fill="#1B2539"/>
<path d="M243.199 71C243.199 116.481 228.149 131.642 183 131.642C228.149 131.642 243.199 146.802 243.199 192.284C243.199 146.802 258.249 131.642 303.398 131.642C258.249 131.642 243.199 116.481 243.199 71Z" fill="#1B2539"/>
<path d="M21 50C21 65.75 15.75 71 -2.65229e-07 71C15.75 71 21 76.25 21 92C21 76.25 26.25 71 42 71C26.25 71 21 65.75 21 50Z" fill="#1B2539"/>
<path d="M346 2.65229e-07C346 15.75 340.75 21 325 21C340.75 21 346 26.25 346 42C346 26.25 351.25 21 367 21C351.25 21 346 15.75 346 2.65229e-07Z" fill="#1B2539"/>
<path d="M771 289C771 371.5 743.5 399 661 399C743.5 399 771 426.5 771 509C771 426.5 798.5 399 881 399C798.5 399 771 371.5 771 289Z" fill="#1B2539"/>
</g>
<defs>
<clipPath id="clip0_133_121">
<rect width="870" height="497" fill="white"/>
</clipPath>
</defs>
</svg>
