<svg width="235" height="757" viewBox="0 0 235 757" fill="none" xmlns="http://www.w3.org/2000/svg">
<g clip-path="url(#clip0_133_123)">
<path d="M202.968 721.402C202.968 734.808 207.436 739.277 220.843 739.277C207.436 739.277 202.968 743.746 202.968 757.153C202.968 743.746 198.499 739.277 185.092 739.277C198.499 739.277 202.968 734.808 202.968 721.402Z" fill="#1B2539"/>
<path d="M200.017 2.58019e-07C200.017 15.3219 205.124 20.4291 220.446 20.4291C205.124 20.4291 200.017 25.5364 200.017 40.8583C200.017 25.5364 194.91 20.4291 179.588 20.4291C194.91 20.4291 200.017 15.3219 200.017 2.58019e-07Z" fill="#1B2539"/>
<path fill-rule="evenodd" clip-rule="evenodd" d="M238.979 346.055C241.314 352.362 243.102 358.843 244.341 365.422C228.397 362.816 205.506 358.552 193.124 354.45C182.616 350.968 172.238 346.727 163.994 343.357L163.994 343.357L163.993 343.357L163.993 343.357L163.993 343.357C156.984 340.492 151.516 338.257 148.823 337.656C142.961 336.348 121.069 326.353 112.304 313.468C103.538 300.583 101.307 294.278 99.0725 285.075C98.2605 281.73 96.672 277.72 94.9409 273.93C97.0241 273.341 99.1193 272.807 101.224 272.33C112.819 295.866 134.94 308.815 160.012 323.491L160.012 323.492L160.03 323.502C161.352 324.276 162.682 325.054 164.018 325.839C183.781 337.445 217.179 343.565 238.979 346.055ZM113.322 270.219C116.413 277.282 121.492 283.953 132.831 291.667C135.705 293.622 138.533 295.597 141.337 297.555L141.337 297.555L141.337 297.555L141.338 297.555L141.338 297.556L141.338 297.556L141.338 297.556L141.338 297.556C155.985 307.783 169.964 317.544 186.342 321.64C188.266 322.122 190.193 322.608 192.117 323.093C206.745 326.785 221.15 330.419 232.354 331.347C226.174 319.815 217.969 309.147 207.759 299.878C181.252 275.815 146.668 266.112 113.322 270.219ZM86.0955 276.799C87.3307 278.374 88.449 280.066 89.352 281.854C94.4801 292.009 96.3518 309.981 91.7575 314.983C87.1632 319.984 74.0224 308.384 69.635 297.112C67.6597 292.037 66.6631 288.327 66.6519 285.929C68.3377 284.95 70.0418 284.013 71.7625 283.119C72.5071 283.317 73.2444 283.477 73.9702 283.636C78.1851 284.554 82.0114 285.388 84.6151 292.876C87.8136 302.073 85.2188 303.573 82.5467 301.803C79.8745 300.033 74.3803 294.785 79.5746 296.616C84.7688 298.448 79.7162 289.631 77.9348 288.451C76.1534 287.271 68.7323 283.964 72.8942 292.191C74.3368 295.043 75.1996 297.433 75.9432 299.493C77.3447 303.376 78.3223 306.084 81.9597 308.493C87.5266 312.18 91.0149 314.169 89.0742 301.621C87.2625 289.907 86.3618 284.405 81.5978 278.55C83.0879 277.936 84.5875 277.352 86.0955 276.799ZM59.5898 290.359C61.0564 292.946 62.8538 295.866 65.038 299.216C78.707 320.175 98.9809 344.223 115.384 353.8C128.506 361.462 132.476 360.402 132.821 358.914C143.186 363.741 165.563 373.908 172.152 375.955C178.741 378.003 182.663 378.305 183.8 378.2C194.336 380.674 217.395 385.714 225.348 386.091C229.519 386.288 231.273 385.621 232.89 385.006C235.128 384.155 237.105 383.403 244.856 385.175C245.397 385.299 245.913 385.382 246.403 385.427C246.557 393.205 245.967 401.017 244.628 408.746C231.244 406.808 206.275 402.792 193.834 399.327C177.065 394.655 130.386 372.747 106.479 350.798C82.5726 328.85 70.3217 316.874 57.397 298.66C56.2817 297.088 55.2306 295.596 54.2415 294.183C55.9974 292.856 57.7809 291.581 59.5898 290.359ZM50.1337 297.425C51.3591 299.354 52.7379 301.339 54.286 303.356C55.3468 304.739 56.4404 306.175 57.5677 307.656L57.5683 307.657C69.7798 323.695 85.9349 344.914 106.932 358.821C111.371 361.761 115.403 364.48 119.177 367.025C134.901 377.628 146.118 385.192 163.415 393.015C184.862 402.716 228.637 412.081 237.911 414.041C240.336 414.553 242.193 414.453 243.598 414.006C242.569 418.714 241.258 423.38 239.665 427.979C239.503 427.677 239.342 427.387 239.184 427.112C229.739 426.862 204.822 423.852 180.719 413.808C150.59 401.253 119.939 386.1 85.4896 353.95C62.0744 332.098 50.1095 314.858 43.9122 302.91C45.9379 301.001 48.0131 299.173 50.1337 297.425ZM35.9041 311.174C47.3271 330.606 67.0367 354.062 98.3471 379.521C132.496 407.289 178.281 424.743 194.16 429.79C204.495 433.075 216.619 435.092 226.178 436.682C229.731 437.273 232.929 437.806 235.549 438.322C232.239 445.657 228.169 452.757 223.336 459.503C223.313 459.456 223.29 459.411 223.267 459.366C213.672 458.696 187.077 453.738 157.451 439.263C122.473 422.174 106.028 409.036 82.231 390.023L82.2309 390.023C80.8326 388.906 79.409 387.768 77.9547 386.608C51.7495 365.712 38.974 348.24 29.3886 331.272C28.1137 329.015 26.9317 326.609 25.8387 324.165C28.8656 319.679 32.2203 315.337 35.9041 311.174ZM22.3101 329.705C23.9522 332.505 25.8471 335.468 27.9865 338.71C30.079 341.88 31.6199 344.479 33.0354 346.867C38.0017 355.243 41.4232 361.014 61.703 379.705C87.7628 403.724 106.99 418.711 122.576 428.07C138.162 437.428 159.164 446.834 173.784 453.299C188.173 459.663 210.752 463.97 218.888 465.342C217.383 467.201 215.817 469.03 214.188 470.824C212.185 473.03 210.121 475.148 208.002 477.177C201.518 472.587 192.243 467.155 183.513 465.213C171.226 462.481 160.34 461.342 156.433 461.114C146.911 458.239 126.59 451.902 121.484 449.55C119.789 448.769 116.535 447.613 112.532 446.192L112.532 446.192C101.46 442.26 84.657 436.294 79.258 430.591C76.1075 427.263 70.9542 424.027 65.801 420.791C58.9299 416.476 52.0589 412.162 49.9352 407.629C48.3901 404.331 45.4466 400.219 42.2139 395.702L42.2137 395.702C37.6709 389.354 32.557 382.209 29.9502 375.407C28.8887 372.637 27.7723 369.43 26.5981 366.057L26.597 366.054L26.5967 366.053L26.5966 366.053C23.5459 357.289 20.1054 347.406 16.2273 341.158C18.0391 337.265 20.0665 333.442 22.3101 329.705ZM5.74986 377.348C10.8037 386.263 16.8525 395.629 23.8958 404.862C47.2173 435.433 68.5962 451.524 83.8865 461.33C96.1187 469.175 116.146 478.729 124.631 482.525C125.524 486.013 132.371 493.573 152.609 495.908C158.907 496.635 162.929 496.991 165.61 497.229L165.611 497.229L165.611 497.229C169.161 497.543 170.36 497.649 171.381 498.132C171.901 498.379 172.375 498.724 173.09 499.244C173.442 499.501 173.852 499.799 174.355 500.15C167.112 503.499 159.613 506.112 151.975 507.98C136.446 502.518 110.589 493.079 101.493 488.437C88.802 481.962 49.0908 455.338 32.9797 440.483C25.4059 433.5 14.6527 417.944 5.1572 402.879C4.46288 394.403 4.65853 385.841 5.74986 377.348ZM8.37852 422.388C8.51167 422.54 8.64565 422.693 8.78049 422.846C30.0187 446.888 49.769 466.406 78.5653 481.94C98.6328 492.765 123.384 504.397 137.182 510.648C104.045 514.542 69.7477 504.809 43.4192 480.907C25.5872 464.719 13.8714 444.266 8.37852 422.388ZM190.323 491.27C190.146 491.045 189.961 490.82 189.768 490.595C189.335 490.09 188.918 489.603 188.515 489.131C181.168 480.536 178.343 477.231 166.387 475.108C153.774 472.868 146.504 472.236 148.956 476.756C151.408 481.276 165.804 486.628 167.509 485.505C169.214 484.382 165.205 480.761 161.124 479.667C157.043 478.573 149.918 473.853 161.566 476.098C173.214 478.343 174.183 483.168 172.036 486.894C169.888 490.62 162.026 491.849 155.791 487.719C149.556 483.589 142.577 476.714 146.132 471.346C149.688 465.978 160.149 468.08 170.24 471.225C180.332 474.369 189.537 481.753 194.512 487.301C194.717 487.53 194.941 487.731 195.181 487.906C193.583 489.07 191.963 490.191 190.323 491.27Z" fill="#1B2539"/>
<path fill-rule="evenodd" clip-rule="evenodd" d="M224.452 141.782L224.579 137.123C223.215 136.22 219.072 134.087 213.419 132.789C211.109 134.354 209.227 136.707 208.097 138.423C207.954 138.421 207.811 138.42 207.668 138.42C198.102 138.42 189.258 141.514 182.082 146.754L179.743 146.815C178.824 146.839 177.931 146.502 177.258 145.876C176.254 146.282 173.649 148.744 170.727 151.507C169.183 152.966 167.551 154.509 166.019 155.877C167.52 157.111 167.91 159.591 168.217 161.541L168.217 161.542L168.217 161.542L168.217 161.542C168.308 162.117 168.391 162.646 168.493 163.083C165.768 168.763 164.241 175.126 164.241 181.847C164.241 192.628 168.17 202.492 174.674 210.085L175.063 212.541C175.206 213.449 174.988 214.378 174.455 215.127C174.989 216.069 177.77 218.331 180.89 220.868L180.89 220.868C182.538 222.208 184.281 223.625 185.837 224.966C186.864 223.317 189.272 222.607 191.166 222.048L191.194 222.04C194.463 223.381 197.932 224.335 201.544 224.845C202.102 224.924 202.663 224.992 203.228 225.049C204.688 225.198 206.17 225.274 207.67 225.274C216.567 225.274 224.839 222.598 231.725 218.008L232.884 218.343C233.453 218.508 233.961 218.836 234.344 219.286C234.886 219.246 236.269 218.402 237.822 217.456C238.642 216.956 239.51 216.428 240.325 215.973C239.487 215.071 239.237 213.705 239.041 212.631C238.999 212.407 238.961 212.195 238.919 212.002C244.614 206.102 248.653 198.593 250.289 190.224L251.328 189.379C251.78 189.011 252.358 188.835 252.939 188.888C253.285 188.295 253.639 186.051 254.036 183.532C254.246 182.202 254.467 180.796 254.706 179.516C253.475 179.478 252.319 178.384 251.41 177.524L251.41 177.524C251.202 177.327 251.007 177.143 250.827 176.987C249.054 161.068 238.677 147.748 224.452 141.782ZM226.386 176.7C229.329 181.953 234.757 184.508 238.51 182.405C242.262 180.303 242.918 174.34 239.975 169.086C237.031 163.833 231.603 161.278 227.85 163.381C224.098 165.483 223.442 171.446 226.386 176.7ZM176.485 197.253C176.032 196.978 175.635 196.642 175.297 196.257C174.757 195.046 174.283 193.799 173.88 192.521C173.824 191.108 174.196 189.599 175.032 188.223C177.028 184.936 180.916 183.649 183.715 185.349C186.514 187.049 187.165 191.092 185.168 194.379C183.172 197.667 179.284 198.953 176.485 197.253ZM200.812 173.254C208.548 169.85 212.848 162.611 210.416 157.085C207.985 151.56 199.743 149.84 192.007 153.244C184.271 156.648 179.971 163.887 182.403 169.413C184.834 174.938 193.077 176.658 200.812 173.254ZM228.838 204.301C228.838 210.077 222.263 214.759 214.152 214.759C206.041 214.759 199.465 210.077 199.465 204.301C199.465 198.525 206.041 193.842 214.152 193.842C222.263 193.842 228.838 198.525 228.838 204.301Z" fill="#1B2539"/>
</g>
<defs>
<clipPath id="clip0_133_123">
<rect width="235" height="757" fill="white"/>
</clipPath>
</defs>
</svg>
