<svg width="284" height="167" viewBox="0 0 284 167" fill="none" xmlns="http://www.w3.org/2000/svg">
<path d="M62.518 70.056C53.942 70.056 47.062 68.52 41.878 65.448C36.694 62.376 33.142 58.12 31.222 52.68C29.302 47.176 28.886 40.872 29.974 33.768C31.126 26.6 33.59 20.552 37.366 15.624C41.142 10.632 45.974 6.824 51.862 4.2C57.75 1.576 64.438 0.263998 71.926 0.263998C76.79 0.263998 81.046 0.775997 84.694 1.8C88.342 2.75999 91.35 4.10399 93.718 5.832L87.766 19.368C85.078 17.832 82.55 16.776 80.182 16.2C77.878 15.624 74.934 15.336 71.35 15.336C64.694 15.336 59.446 17.032 55.606 20.424C51.766 23.752 49.366 28.52 48.406 34.728C47.382 41.192 48.118 46.248 50.614 49.896C53.11 53.48 57.782 55.272 64.63 55.272C67.062 55.272 69.366 55.08 71.542 54.696C73.782 54.312 76.15 53.736 78.646 52.968L73.75 59.304L76.342 43.176H62.326L64.246 30.888H92.758L87.382 64.68C85.014 65.832 82.422 66.824 79.606 67.656C76.79 68.424 73.91 69 70.966 69.384C68.022 69.832 65.206 70.056 62.518 70.056ZM96.31 69L107.062 1.32H155.638L153.43 14.856H121.846L119.83 27.816H149.11L146.998 41.448H117.622L115.414 55.368H146.998L144.886 69H96.31ZM152.234 69L162.986 1.32H176.042L203.402 45L200.714 43.848L207.53 1.32H223.946L213.194 69H200.138L172.874 25.32L175.562 26.472L168.842 69H152.234ZM223.72 69L234.472 1.32H283.048L280.84 14.856H249.256L247.24 27.816H276.52L274.408 41.448H245.032L242.824 55.368H274.408L272.296 69H223.72ZM0.4 167L11.152 99.32H41.488C50.128 99.32 56.304 101.24 60.016 105.08C63.792 108.92 65.136 114.328 64.048 121.304C63.408 125.4 61.904 128.952 59.536 131.96C57.168 134.968 54.096 137.304 50.32 138.968C46.544 140.568 42.224 141.368 37.36 141.368L37.648 138.968H41.968C44.784 138.968 47.12 139.768 48.976 141.368C50.896 142.904 52.4 145.016 53.488 147.704L60.88 167H42.448L34.48 145.4C34.032 143.992 33.104 143.032 31.696 142.52C30.288 142.008 28.72 141.752 26.992 141.752H22.192L18.16 167H0.4ZM24.112 129.176H35.824C39.216 129.176 41.84 128.504 43.696 127.16C45.552 125.816 46.672 123.864 47.056 121.304C47.504 118.424 46.928 116.312 45.328 114.968C43.792 113.56 41.328 112.856 37.936 112.856H26.704L24.112 129.176ZM57.253 167L99.685 99.32H114.085L135.205 167H118.021L112.837 148.376L118.885 153.272H79.141L86.629 148.376L75.589 167H57.253ZM104.485 117.56L89.029 144.344L87.013 139.832H115.237L112.069 144.344L104.965 117.56H104.485ZM137.466 167L148.218 99.32H165.978L157.53 152.312H186.522L184.218 167H137.466Z" fill="#DEEA5B"/>
</svg>
