<svg width="149" height="166" viewBox="0 0 149 166" fill="none" xmlns="http://www.w3.org/2000/svg">
<path d="M26.23 68L36.982 0.319996H54.742L46.294 53.312H75.286L72.982 68H26.23ZM70.6143 68L113.046 0.319996H127.446L148.566 68H131.382L126.198 49.376L132.246 54.272H92.5023L99.9903 49.376L88.9503 68H70.6143ZM117.846 18.56L102.39 45.344L100.374 40.832H128.598L125.43 45.344L118.326 18.56H117.846ZM0.4 166L11.152 98.32H36.784C45.36 98.32 52.272 99.792 57.52 102.736C62.832 105.68 66.48 109.808 68.464 115.12C70.512 120.368 70.96 126.608 69.808 133.84C68.08 144.528 63.664 152.56 56.56 157.936C49.456 163.312 40.08 166 28.432 166H0.4ZM20.464 151.6H28.912C35.824 151.6 41.2 150.064 45.04 146.992C48.88 143.92 51.312 139.344 52.336 133.264C53.424 126.032 52.528 120.784 49.648 117.52C46.768 114.256 41.808 112.624 34.768 112.624H26.512L20.464 151.6ZM85.9585 166L91.1425 133.648L92.9665 143.44L70.0225 98.32H89.7025L102.567 125.488H99.1105L120.711 98.32H141.063L103.623 144.208L108.807 133.648L103.719 166H85.9585Z" fill="#FFBFBF"/>
</svg>
