<svg width="248" height="169" viewBox="0 0 248 169" fill="none" xmlns="http://www.w3.org/2000/svg">
<path d="M48.79 69L28.822 1.32H47.254L60.982 52.776H55.702L85.654 1.32H104.566L63.094 69H48.79ZM96.2163 69L106.968 1.32H124.728L113.976 69H96.2163ZM160.097 70.056C152.097 70.056 145.537 68.456 140.417 65.256C135.361 62.056 131.809 57.704 129.761 52.2C127.777 46.632 127.329 40.36 128.417 33.384C129.505 26.344 131.809 20.36 135.329 15.432C138.913 10.44 143.489 6.664 149.057 4.10399C154.689 1.48 161.09 0.199999 168.257 0.263998C172.674 0.263998 176.642 0.839998 180.162 1.992C183.746 3.144 186.722 4.648 189.09 6.504L183.234 20.52C180.674 18.728 178.209 17.48 175.841 16.776C173.473 16.008 170.721 15.624 167.585 15.624C162.082 15.624 157.474 17.224 153.762 20.424C150.113 23.56 147.809 28.104 146.849 34.056C146.209 38.28 146.369 41.96 147.33 45.096C148.289 48.168 150.017 50.536 152.513 52.2C155.073 53.864 158.401 54.696 162.497 54.696C165.313 54.696 168.097 54.28 170.85 53.448C173.665 52.552 176.577 51.048 179.586 48.936L184.194 62.856C180.866 65.16 177.122 66.952 172.962 68.232C168.866 69.448 164.578 70.056 160.097 70.056ZM188.376 69L199.128 1.32H247.704L245.496 14.856H213.912L211.896 27.816H241.176L239.064 41.448H209.688L207.48 55.368H239.064L236.952 69H188.376ZM0.4 167L11.152 99.32H41.488C50.128 99.32 56.304 101.24 60.016 105.08C63.792 108.92 65.136 114.328 64.048 121.304C63.408 125.4 61.904 128.952 59.536 131.96C57.168 134.968 54.096 137.304 50.32 138.968C46.544 140.568 42.224 141.368 37.36 141.368L37.648 138.968H41.968C44.784 138.968 47.12 139.768 48.976 141.368C50.896 142.904 52.4 145.016 53.488 147.704L60.88 167H42.448L34.48 145.4C34.032 143.992 33.104 143.032 31.696 142.52C30.288 142.008 28.72 141.752 26.992 141.752H22.192L18.16 167H0.4ZM24.112 129.176H35.824C39.216 129.176 41.84 128.504 43.696 127.16C45.552 125.816 46.672 123.864 47.056 121.304C47.504 118.424 46.928 116.312 45.328 114.968C43.792 113.56 41.328 112.856 37.936 112.856H26.704L24.112 129.176ZM70.2888 131.384C71.3768 124.344 73.6168 118.36 77.0088 113.432C80.4008 108.504 84.7208 104.76 89.9688 102.2C95.2168 99.576 101.169 98.264 107.825 98.264C115.505 98.264 121.745 99.864 126.545 103.064C131.409 106.2 134.833 110.552 136.817 116.12C138.801 121.624 139.217 127.864 138.065 134.84C136.977 141.88 134.705 147.864 131.249 152.792C127.857 157.72 123.537 161.496 118.289 164.12C113.105 166.744 107.121 168.056 100.337 168.056C92.7848 168.056 86.5768 166.456 81.7128 163.256C76.8488 160.056 73.4568 155.704 71.5368 150.2C69.6168 144.632 69.2008 138.36 70.2888 131.384ZM88.6248 132.344C87.9208 136.76 87.9528 140.536 88.7208 143.672C89.5528 146.808 91.0568 149.208 93.2328 150.872C95.4728 152.472 98.3528 153.272 101.873 153.272C106.929 153.272 110.929 151.512 113.873 147.992C116.817 144.472 118.737 139.768 119.633 133.88C120.401 129.464 120.369 125.72 119.537 122.648C118.705 119.512 117.169 117.144 114.929 115.544C112.753 113.88 109.873 113.048 106.289 113.048C101.233 113.048 97.2648 114.776 94.3848 118.232C91.5048 121.688 89.5848 126.392 88.6248 132.344ZM154.164 167L159.348 134.648L161.172 144.44L138.228 99.32H157.908L170.772 126.488H167.316L188.916 99.32H209.268L171.828 145.208L177.012 134.648L171.924 167H154.164Z" fill="#E9D243"/>
</svg>
