<svg width="167" height="169" viewBox="0 0 167 169" fill="none" xmlns="http://www.w3.org/2000/svg">
<path d="M14.878 69L57.31 1.32H71.71L92.83 69H75.646L70.462 50.376L76.51 55.272H36.766L44.254 50.376L33.214 69H14.878ZM62.11 19.56L46.654 46.344L44.638 41.832H72.862L69.694 46.344L62.59 19.56H62.11ZM140.828 87.528C138.716 86.376 136.7 84.872 134.78 83.016C132.86 81.224 131.164 79.144 129.692 76.776C128.22 74.408 127.036 71.976 126.14 69.48L140.636 63.24C141.596 66.504 143.324 69.48 145.82 72.168C148.38 74.92 151.1 77.128 153.98 78.792L140.828 87.528ZM97.2438 33.384C98.3318 26.344 100.572 20.36 103.964 15.432C107.356 10.504 111.676 6.76 116.924 4.2C122.172 1.576 128.124 0.263998 134.78 0.263998C142.46 0.263998 148.7 1.864 153.5 5.064C158.364 8.2 161.788 12.552 163.772 18.12C165.756 23.624 166.172 29.864 165.02 36.84C163.932 43.88 161.66 49.864 158.204 54.792C154.812 59.72 150.492 63.496 145.244 66.12C140.06 68.744 134.076 70.056 127.292 70.056C119.74 70.056 113.532 68.456 108.668 65.256C103.804 62.056 100.412 57.704 98.4918 52.2C96.5718 46.632 96.1558 40.36 97.2438 33.384ZM115.58 34.344C114.876 38.76 114.908 42.536 115.676 45.672C116.508 48.808 118.012 51.208 120.188 52.872C122.428 54.472 125.308 55.272 128.828 55.272C133.884 55.272 137.884 53.512 140.828 49.992C143.772 46.472 145.692 41.768 146.588 35.88C147.356 31.464 147.324 27.72 146.492 24.648C145.66 21.512 144.124 19.144 141.884 17.544C139.708 15.88 136.828 15.048 133.244 15.048C128.188 15.048 124.22 16.776 121.34 20.232C118.46 23.688 116.54 28.392 115.58 34.344ZM28.408 168.056C22.136 168.056 16.792 166.968 12.376 164.792C8.024 162.616 4.888 159.288 2.968 154.808C1.048 150.264 0.632 144.504 1.72 137.528L7.864 99.32H25.528L19.384 138.584C18.616 143.384 19.032 147.032 20.632 149.528C22.296 152.024 25.496 153.272 30.232 153.272C34.456 153.272 37.72 152.056 40.024 149.624C42.328 147.128 43.896 143.352 44.728 138.296L50.872 99.32H68.344L62.008 138.968C60.984 145.368 59.128 150.744 56.44 155.096C53.816 159.384 50.2 162.616 45.592 164.792C40.984 166.968 35.256 168.056 28.408 168.056ZM58.753 167L101.185 99.32H115.585L136.705 167H119.521L114.337 148.376L120.385 153.272H80.641L88.129 148.376L77.089 167H58.753ZM105.985 117.56L90.529 144.344L88.513 139.832H116.737L113.569 144.344L106.465 117.56H105.985Z" fill="#989BFF"/>
</svg>
