<svg width="283" height="166" viewBox="0 0 283 166" fill="none" xmlns="http://www.w3.org/2000/svg">
<path d="M17.878 68L60.31 0.319996H74.71L95.83 68H78.646L73.462 49.376L79.51 54.272H39.766L47.254 49.376L36.214 68H17.878ZM65.11 18.56L49.654 45.344L47.638 40.832H75.862L72.694 45.344L65.59 18.56H65.11ZM98.0913 68L108.843 0.319996H134.475C143.051 0.319996 149.963 1.792 155.211 4.736C160.523 7.68 164.171 11.808 166.155 17.12C168.203 22.368 168.651 28.608 167.499 35.84C165.771 46.528 161.355 54.56 154.251 59.936C147.147 65.312 137.771 68 126.123 68H98.0913ZM118.155 53.6H126.603C133.515 53.6 138.891 52.064 142.731 48.992C146.571 45.92 149.003 41.344 150.027 35.264C151.115 28.032 150.219 22.784 147.339 19.52C144.459 16.256 139.499 14.624 132.459 14.624H124.203L118.155 53.6ZM171.459 68L182.211 0.319996H197.571L211.875 49.952H208.707L238.659 0.319996H254.115L243.363 68H227.331L233.859 26.528H238.083L212.259 68H202.371L189.603 26.528H194.019L187.395 68H171.459ZM254.095 68L264.847 0.319996H282.607L271.855 68H254.095ZM0.4 166L11.152 98.32H41.488C50.128 98.32 56.304 100.24 60.016 104.08C63.792 107.92 65.136 113.328 64.048 120.304C63.408 124.4 61.904 127.952 59.536 130.96C57.168 133.968 54.096 136.304 50.32 137.968C46.544 139.568 42.224 140.368 37.36 140.368L37.648 137.968H41.968C44.784 137.968 47.12 138.768 48.976 140.368C50.896 141.904 52.4 144.016 53.488 146.704L60.88 166H42.448L34.48 144.4C34.032 142.992 33.104 142.032 31.696 141.52C30.288 141.008 28.72 140.752 26.992 140.752H22.192L18.16 166H0.4ZM24.112 128.176H35.824C39.216 128.176 41.84 127.504 43.696 126.16C45.552 124.816 46.672 122.864 47.056 120.304C47.504 117.424 46.928 115.312 45.328 113.968C43.792 112.56 41.328 111.856 37.936 111.856H26.704L24.112 128.176ZM57.253 166L99.685 98.32H114.085L135.205 166H118.021L112.837 147.376L118.885 152.272H79.141L86.629 147.376L75.589 166H57.253ZM104.485 116.56L89.029 143.344L87.013 138.832H115.237L112.069 143.344L104.965 116.56H104.485ZM137.466 166L148.218 98.32H165.978L157.53 151.312H186.522L184.218 166H137.466Z" fill="#7DD5EA"/>
</svg>
