<svg width="226" height="167" viewBox="0 0 226 167" fill="none" xmlns="http://www.w3.org/2000/svg">
<path d="M17.878 69L60.31 1.32H74.71L95.83 69H78.646L73.462 50.376L79.51 55.272H39.766L47.254 50.376L36.214 69H17.878ZM65.11 19.56L49.654 46.344L47.638 41.832H75.862L72.694 46.344L65.59 19.56H65.11ZM132.692 70.056C124.116 70.056 117.236 68.52 112.052 65.448C106.868 62.376 103.316 58.12 101.396 52.68C99.4758 47.176 99.0598 40.872 100.148 33.768C101.3 26.6 103.764 20.552 107.54 15.624C111.316 10.632 116.148 6.824 122.036 4.2C127.924 1.576 134.612 0.263998 142.1 0.263998C146.964 0.263998 151.22 0.775997 154.868 1.8C158.516 2.75999 161.524 4.10399 163.892 5.832L157.94 19.368C155.252 17.832 152.724 16.776 150.356 16.2C148.052 15.624 145.108 15.336 141.524 15.336C134.868 15.336 129.62 17.032 125.78 20.424C121.94 23.752 119.54 28.52 118.58 34.728C117.556 41.192 118.292 46.248 120.788 49.896C123.284 53.48 127.956 55.272 134.804 55.272C137.236 55.272 139.54 55.08 141.716 54.696C143.956 54.312 146.324 53.736 148.82 52.968L143.924 59.304L146.516 43.176H132.5L134.42 30.888H162.932L157.556 64.68C155.188 65.832 152.596 66.824 149.78 67.656C146.964 68.424 144.084 69 141.14 69.384C138.196 69.832 135.38 70.056 132.692 70.056ZM166.484 69L177.236 1.32H225.812L223.604 14.856H192.02L190.004 27.816H219.284L217.172 41.448H187.796L185.588 55.368H217.172L215.06 69H166.484ZM0.4 167L11.152 99.32H24.208L51.568 143L48.88 141.848L55.696 99.32H72.112L61.36 167H48.304L21.04 123.32L23.728 124.472L17.008 167H0.4ZM87.3423 167L95.7903 113.624H75.2463L77.5503 99.32H136.398L134.094 113.624H113.55L105.102 167H87.3423Z" fill="#FF8831"/>
</svg>
