<svg width="234" height="166" viewBox="0 0 234 166" fill="none" xmlns="http://www.w3.org/2000/svg">
<path d="M23.518 68L34.27 0.319996H49.63L63.934 49.952H60.766L90.718 0.319996H106.174L95.422 68H79.39L85.918 26.528H90.142L64.318 68H54.43L41.662 26.528H46.078L39.454 68H23.518ZM106.154 68L116.906 0.319996H165.482L163.274 13.856H131.69L129.674 26.816H158.954L156.842 40.448H127.466L125.258 54.368H156.842L154.73 68H106.154ZM162.078 68L172.83 0.319996H185.886L213.246 44L210.558 42.848L217.374 0.319996H233.79L223.038 68H209.982L182.718 24.32L185.406 25.472L178.686 68H162.078ZM12.856 166L21.304 112.624H0.76L3.064 98.32H61.912L59.608 112.624H39.064L30.616 166H12.856ZM40.753 166L83.185 98.32H97.585L118.705 166H101.521L96.337 147.376L102.385 152.272H62.641L70.129 147.376L59.089 166H40.753ZM87.985 116.56L72.529 143.344L70.513 138.832H98.737L95.569 143.344L88.465 116.56H87.985ZM128.829 166L137.277 112.624H116.733L119.037 98.32H177.885L175.581 112.624H155.037L146.589 166H128.829Z" fill="#D996F5"/>
</svg>
